ffmpeg started on 2016-11-27 at 23:59:34
Report written to "Output/NVENCh264/results/ffmpeg/sintelllhp4500k.log"
Command line:
Tools/ffmpeg/ffmpeg -benchmark -y -i Input/y4m/sintel.y4m -c:v h264_nvenc -preset llhp -b:v 4500k -an Output/NVENCh264/encoded/sintelllhp4500k.mkv
ffmpeg version N-82227-gdb23fde Copyright (c) 2000-2016 the FFmpeg developers
  built with gcc 5.4.0 (Ubuntu 5.4.0-6ubuntu1~16.04.2) 20160609
  configuration: --prefix=/home/jaroslav/ffmpeg_build --pkg-config-flags=--static --extra-cflags=-I/home/jaroslav/ffmpeg_build/include --extra-ldflags=-L/home/jaroslav/ffmpeg_build/lib --bindir=/home/jaroslav/bin --enable-gpl --enable-libass --enable-libfdk-aac --enable-libfreetype --enable-libmp3lame --enable-libopus --enable-libtheora --enable-libvorbis --enable-libvpx --enable-libx264 --enable-libx265 --enable-nvenc --enable-libmfx --enable-libxvid --enable-libgsm --enable-libopencore-amrnb --enable-version3 --enable-nonfree
  libavutil      55. 35.100 / 55. 35.100
  libavcodec     57. 66.101 / 57. 66.101
  libavformat    57. 57.100 / 57. 57.100
  libavdevice    57.  2.100 / 57.  2.100
  libavfilter     6. 66.100 /  6. 66.100
  libswscale      4.  3.100 /  4.  3.100
  libswresample   2.  4.100 /  2.  4.100
  libpostproc    54.  2.100 / 54.  2.100
Input #0, yuv4mpegpipe, from 'Input/y4m/sintel.y4m':
  Duration: 00:00:20.83, start: 0.000000, bitrate: 2057307 kb/s
    Stream #0:0: Video: rawvideo (I420 / 0x30323449), yuv420p(progressive), 4096x1744, SAR 1:1 DAR 256:109, 24 fps, 24 tbr, 24 tbn, 24 tbc
[h264_nvenc @ 0x2f0a1c0] The variable bitrate rate-control requires the 'qmin' and/or 'qmax' option set.
Output #0, matroska, to 'Output/NVENCh264/encoded/sintelllhp4500k.mkv':
  Metadata:
    encoder         : Lavf57.57.100
    Stream #0:0: Video: h264 (h264_nvenc) (Main) (H264 / 0x34363248), yuv420p, 4096x1744 [SAR 1:1 DAR 256:109], q=-1--1, 4500 kb/s, 24 fps, 1k tbn, 24 tbc
    Metadata:
      encoder         : Lavc57.66.101 h264_nvenc
    Side data:
      cpb: bitrate max/min/avg: 0/0/4500000 buffer size: 9000000 vbv_delay: -1
Stream mapping:
  Stream #0:0 -> #0:0 (rawvideo (native) -> h264 (h264_nvenc))
Press [q] to stop, [?] for help
frame=   16 fps=0.0 q=0.0 size=       0kB time=00:00:00.00 bitrate=N/A speed=   0x    frame=   37 fps= 31 q=40.0 size=       1kB time=00:00:00.25 bitrate=  23.8kbits/s speed=0.213x    frame=   58 fps= 34 q=44.0 size=       1kB time=00:00:01.12 bitrate=   5.3kbits/s speed=0.668x    frame=   79 fps= 36 q=41.0 size=       1kB time=00:00:02.00 bitrate=   3.0kbits/s speed=0.912x    frame=  100 fps= 37 q=42.0 size=       1kB time=00:00:02.87 bitrate=   2.1kbits/s speed=1.06x    frame=  121 fps= 38 q=40.0 size=       1kB time=00:00:03.75 bitrate=   1.6kbits/s speed=1.17x    frame=  142 fps= 38 q=35.0 size=       1kB time=00:00:04.62 bitrate=   1.3kbits/s speed=1.24x    frame=  158 fps= 22 q=41.0 size=    2529kB time=00:00:05.29 bitrate=3914.6kbits/s speed=0.733x    frame=  159 fps= 15 q=41.0 size=    2529kB time=00:00:05.33 bitrate=3884.5kbits/s speed=0.512x    frame=  160 fps= 12 q=41.0 size=    2529kB time=00:00:05.37 bitrate=3854.1kbits/s speed=0.398x    frame=  181 fps= 13 q=41.0 size=    2529kB time=00:00:06.25 bitrate=3314.6kbits/s speed=0.446x    frame=  202 fps= 14 q=38.0 size=    2529kB time=00:00:07.12 bitrate=2907.6kbits/s speed=0.49x    frame=  223 fps= 15 q=37.0 size=    2529kB time=00:00:08.00 bitrate=2589.7kbits/s speed=0.532x    frame=  244 fps= 16 q=39.0 size=    2529kB time=00:00:08.87 bitrate=2334.4kbits/s speed=0.571x    frame=  265 fps= 16 q=38.0 size=    2529kB time=00:00:09.75 bitrate=2124.9kbits/s speed=0.607x    frame=  286 fps= 17 q=35.0 size=    5301kB time=00:00:10.62 bitrate=4086.9kbits/s speed=0.641x    frame=  307 fps= 18 q=37.0 size=    5968kB time=00:00:11.50 bitrate=4251.1kbits/s speed=0.673x    frame=  328 fps= 19 q=34.0 size=    5968kB time=00:00:12.37 bitrate=3950.6kbits/s speed=0.703x    frame=  349 fps= 19 q=32.0 size=    5968kB time=00:00:13.25 bitrate=3689.7kbits/s speed=0.731x    frame=  370 fps= 20 q=31.0 size=    5968kB time=00:00:14.12 bitrate=3461.2kbits/s speed=0.758x    frame=  391 fps= 20 q=32.0 size=    5968kB time=00:00:15.00 bitrate=3259.3kbits/s speed=0.784x    frame=  412 fps= 21 q=33.0 size=    5968kB time=00:00:15.87 bitrate=3079.6kbits/s speed=0.808x    frame=  433 fps= 21 q=36.0 size=    8738kB time=00:00:16.75 bitrate=4273.3kbits/s speed=0.83x    frame=  454 fps= 22 q=36.0 size=    9490kB time=00:00:17.62 bitrate=4410.8kbits/s speed=0.852x    frame=  475 fps= 22 q=34.0 size=    9490kB time=00:00:18.50 bitrate=4202.2kbits/s speed=0.873x    frame=  493 fps= 23 q=33.0 size=    9490kB time=00:00:19.25 bitrate=4038.4kbits/s speed=0.881x    frame=  500 fps= 23 q=34.0 Lsize=   11404kB time=00:00:20.79 bitrate=4493.0kbits/s speed=0.942x    
video:11399kB audio:0kB subtitle:0kB other streams:0kB global headers:0kB muxing overhead: 0.042089%
bench: utime=0.996s
bench: maxrss=1189832kB
